<html>
<head>
<meta charset="UTF-8">
<meta name="viewport" content="width=device-width, initial-scale=1.0"/>

<style>
.comment
{
    padding-left: 20px;
    margin-top: 4px;
    margin-right: 4px;
    margin-bottom: 4px;
    border: 2px #000 solid;
}
.submission
{
    border: 4px #00f solid;
    padding-left: 20px;
}
.hidden
{
    display: none;
}
</style>
</head>
<body><div class="submission" id="t3_7q4kr3">
    <p class="userinfo">
        <a href="https://www.reddit.com/u/harris_kid">harris_kid</a>
        <span class="score"> | 23 points</span>
        <span class="timestamp"> | Jan 13 2018 13:58:52</span>
    </p>
    <strong>[TV Specials]Top Gear - The Challengers (2007) (DVD) (x265 8bit / AC3) (2.17gb)</strong>
    <p><p>aHR0cHM6Ly9tZWdhLm56LyMhZWx4RmxDUkEhaldsemg1MVprVHZodjFQX1dUelFURGNuSlNVV09pMkY1NDgzNFhKSGNWWQ==</p>
<p>Base 64 decode</p>
<p>Media info</p>
<pre><code>General
Unique ID                                : 203930085308327299022638396843658968319 (0x996B817B2B855D6498F29BB2727DFCFF)
Complete name                            : Z:\Movies\Top Gear - The Challenges [2007] [404p] [2.0-AC3] [x265@1.5].mkv
Format                                   : Matroska
Format version                           : Version 4 / Version 2
File size                                : 2.17 GiB
Duration                                 : 2 h 53 min
Overall bit rate                         : 1 785 kb/s
Encoded date                             : UTC 2017-09-29T21:29:57Z
Writing application                      : HandBrake 1.0.0 2016122400
Writing library                          : Lavf57.7.2

Video
ID                                       : 1
Format                                   : HEVC
Format/Info                              : High Efficiency Video Coding
Format profile                           : Main@L3@Main
Codec ID                                 : V_MPEGH/ISO/HEVC
Duration                                 : 2 h 53 min
Bit rate                                 : 1 558 kb/s
Width                                    : 720 pixels
Height                                   : 404 pixels
Display aspect ratio                     : 16:9
Frame rate mode                          : Constant
Frame rate                               : 25.000 FPS
Color space                              : YUV
Chroma subsampling                       : 4:2:0
Bit depth                                : 8 bits
Bits/(Pixel*Frame)                       : 0.214
Stream size                              : 1.89 GiB (87%)
Writing library                          : x265 2.1:[Windows][GCC 5.4.0][64 bit] 8bit
Encoding settings                        : wpp / ctu=64 / min-cu-size=8 / max-tu-size=32 / tu-intra-depth=1 / tu-inter-depth=1 / me=1 / subme=2 / merange=57 / no-rect / no-amp / max-merge=2 / temporal-mvp / no-early-skip / rskip / rdpenalty=0 / no-tskip / no-tskip-fast / strong-intra-smoothing / no-lossless / no-cu-lossless / no-constrained-intra / no-fast-intra / open-gop / no-temporal-layers / interlace=0 / keyint=250 / min-keyint=25 / scenecut=40 / rc-lookahead=20 / lookahead-slices=0 / bframes=4 / bframe-bias=0 / b-adapt=2 / ref=3 / limit-refs=3 / no-limit-modes / weightp / no-weightb / aq-mode=1 / qg-size=32 / aq-strength=1.00 / cbqpoffs=0 / crqpoffs=0 / rd=3 / psy-rd=2.00 / rdoq-level=0 / psy-rdoq=0.00 / log2-max-poc-lsb=8 / no-rd-refine / signhide / deblock=1:1 / sao / no-sao-non-deblock / b-pyramid / cutree / no-intra-refresh / rc=crf / crf=19.0 / qcomp=0.60 / qpmin=0 / qpmax=69 / qpstep=4 / ipratio=1.40 / pbratio=1.30
Default                                  : Yes
Forced                                   : No
Color range                              : Limited
Color primaries                          : BT.601 PAL
Transfer characteristics                 : BT.709
Matrix coefficients                      : BT.601

Audio
ID                                       : 2
Format                                   : AC-3
Format/Info                              : Audio Coding 3
Format settings, Endianness              : Big
Codec ID                                 : A_AC3
Duration                                 : 2 h 53 min
Bit rate mode                            : Constant
Bit rate                                 : 192 kb/s
Channel(s)                               : 2 channels
Channel positions                        : Front: L R
Sampling rate                            : 48.0 kHz
Frame rate                               : 31.250 FPS (1536 SPF)
Bit depth                                : 16 bits
Compression mode                         : Lossy
Delay relative to video                  : 40 ms
Stream size                              : 238 MiB (11%)
Title                                    : Stereo
Language                                 : English
Service kind                             : Complete Main
Default                                  : Yes
Forced                                   : No

Text
ID                                       : 3
Format                                   : VobSub
Codec ID                                 : S_VOBSUB
Codec ID/Info                            : Picture based subtitle format used on DVDs
Language                                 : English
Default                                  : No
Forced                                   : No

Menu
00:00:00.160                             : :Chapter 1
00:09:54.920                             : :Chapter 2
00:21:29.640                             : :Chapter 3
00:30:05.480                             : :Chapter 4
00:40:58.600                             : :Chapter 5
00:46:16.840                             : :Chapter 6
00:52:07.320                             : :Chapter 7
01:00:44.720                             : :Chapter 8
01:06:44.040                             : :Chapter 9
01:14:24.240                             : :Chapter 10
01:21:37.400                             : :Chapter 11
01:28:05.520                             : :Chapter 12
01:38:24.840                             : :Chapter 13
01:44:01.800                             : :Chapter 14
01:50:46.880                             : :Chapter 15
01:57:13.760                             : :Chapter 16
02:06:41.600                             : :Chapter 17
02:12:39.880                             : :Chapter 18
02:21:59.400                             : :Chapter 19
02:30:38.360                             : :Chapter 20
02:35:41.000                             : :Chapter 21
02:41:10.680                             : :Chapter 22
02:45:35.880                             : :Chapter 23
02:50:28.120                             : :Chapter 24
</code></pre></p>
    <p class="toolbar">
        <a href="https://www.reddit.com/r/megalinks/comments/7q4kr3">permalink</a>
    </p>
</div>

</body>

<script>
function toggle_collapse(comment_div)
{
    var button = comment_div.getElementsByClassName("toggle_hide_button")[0];
    var collapsible = comment_div.getElementsByClassName("collapsible")[0];
    if (collapsible.classList.contains("hidden"))
    {
        collapsible.classList.remove("hidden");
        button.innerText = "[-]";
    }
    else
    {
        collapsible.classList.add("hidden");
        button.innerText = "[+]";
    }
}
</script>
</html>
